<svg width="50" height="50" viewBox="0 0 50 50" fill="none" xmlns="http://www.w3.org/2000/svg">
<path d="M43.7521 16.7523C43.4675 16.4656 43.1288 16.2383 42.7557 16.0835C42.3826 15.9286 41.9825 15.8494 41.5786 15.8502H35.4369V14.3148C35.4369 11.4643 34.3046 8.73059 32.289 6.71498C30.2734 4.69937 27.5396 3.56702 24.6891 3.56702C21.8386 3.56702 19.1049 4.69937 17.0893 6.71498C15.0737 8.73059 13.9413 11.4643 13.9413 14.3148V15.8502H7.79969C6.98526 15.8502 6.20419 16.1738 5.6283 16.7497C5.05241 17.3255 4.72888 18.1066 4.72888 18.921V39.649C4.72888 43.3915 7.89565 46.5583 11.6382 46.5583H37.74C39.5504 46.5589 41.289 45.8511 42.5842 44.5863C43.236 43.9644 43.7551 43.217 44.11 42.389C44.4649 41.5611 44.6484 40.6698 44.6494 39.7689V18.921C44.6506 18.5182 44.572 18.1191 44.4179 17.7468C44.2639 17.3745 44.0376 17.0365 43.7521 16.7523ZM17.0121 14.3148C17.0121 12.2788 17.8209 10.3261 19.2607 8.88637C20.7004 7.44665 22.653 6.63782 24.6891 6.63782C26.7252 6.63782 28.6779 7.44665 30.1176 8.88637C31.5573 10.3261 32.3661 12.2788 32.3661 14.3148V15.8502H17.0121V14.3148Z" fill="black"/>
</svg>
