<svg width="77" height="58" viewBox="0 0 77 58" fill="none" xmlns="http://www.w3.org/2000/svg">
<path d="M48.0878 41.5922C43.4459 41.5922 39.5178 39.9841 36.3034 36.768C33.089 33.5519 31.481 29.6238 31.4792 24.9836C31.4775 20.3435 33.0856 16.4153 36.3034 13.1993C39.5212 9.98317 43.4493 8.37512 48.0878 8.37512C52.7262 8.37512 56.6552 9.98317 59.8747 13.1993C63.0942 16.4153 64.7014 20.3435 64.6963 24.9836C64.6963 26.8574 64.3982 28.6247 63.802 30.2856C63.2058 31.9464 62.3966 33.4157 61.3746 34.6932L75.6835 49.0021C76.1519 49.4706 76.3861 50.0668 76.3861 50.7907C76.3861 51.5147 76.1519 52.1109 75.6835 52.5793C75.215 53.0478 74.6188 53.282 73.8948 53.282C73.1709 53.282 72.5747 53.0478 72.1062 52.5793L57.7974 38.2705C56.5198 39.2925 55.0506 40.1016 53.3897 40.6979C51.7289 41.2941 49.9615 41.5922 48.0878 41.5922ZM48.0878 36.4818C51.2817 36.4818 53.997 35.3644 56.2336 33.1295C58.4702 30.8946 59.5877 28.1793 59.586 24.9836C59.5843 21.788 58.4668 19.0736 56.2336 16.8404C54.0004 14.6071 51.2851 13.4888 48.0878 13.4854C44.8904 13.482 42.176 14.6003 39.9445 16.8404C37.713 19.0804 36.5947 21.7948 36.5896 24.9836C36.5845 28.1725 37.7028 30.8878 39.9445 33.1295C42.1862 35.3712 44.9006 36.4887 48.0878 36.4818Z" fill="black"/>
</svg>
