<?xml version="1.0" encoding="UTF-8"?>
<!DOCTYPE svg PUBLIC "-//W3C//DTD SVG 1.1//EN" "http://www.w3.org/Graphics/SVG/1.1/DTD/svg11.dtd">
<svg xmlns="http://www.w3.org/2000/svg" version="1.1" width="424px" height="278px" style="shape-rendering:geometricPrecision; text-rendering:geometricPrecision; image-rendering:optimizeQuality; fill-rule:evenodd; clip-rule:evenodd" xmlns:xlink="http://www.w3.org/1999/xlink">
<g><path style="opacity:1" fill="#2d2626" d="M 154.5,17.5 C 163.785,18.3862 172.618,20.7195 181,24.5C 181.354,33.1919 182.021,41.8586 183,50.5C 185.411,52.578 188.078,54.2447 191,55.5C 198.889,51.2223 206.889,47.2223 215,43.5C 222.675,46.9211 230.175,50.7544 237.5,55C 241.253,54.9547 244.419,53.4547 247,50.5C 247.915,41.853 248.582,33.1863 249,24.5C 250.171,23.1068 251.671,22.2735 253.5,22C 259.971,20.3725 266.471,18.8725 273,17.5C 274.711,17.4393 276.044,18.1059 277,19.5C 280.452,26.905 284.285,34.0717 288.5,41C 291.833,41.6667 295.167,41.6667 298.5,41C 303.387,35.1137 307.887,28.947 312,22.5C 313.117,20.8757 314.617,19.8757 316.5,19.5C 324.73,21.6296 332.564,24.6296 340,28.5C 339.313,37.1156 338.98,45.7823 339,54.5C 342.203,58.6881 346.37,60.5215 351.5,60C 358.924,56.3044 366.591,53.6377 374.5,52C 379.514,58.3444 384.514,64.6777 389.5,71C 385.066,77.7713 380.233,84.2713 375,90.5C 374.67,95.8457 376.17,100.679 379.5,105C 387.857,106.559 396.19,108.226 404.5,110C 405,110.5 405.5,111 406,111.5C 407.911,119.665 408.411,127.832 407.5,136C 400.167,138.667 392.833,141.333 385.5,144C 384.333,144.5 383.5,145.333 383,146.5C 381.993,150.867 381.327,155.2 381,159.5C 386.698,165.532 392.698,171.199 399,176.5C 397.722,184.41 394.722,191.743 390,198.5C 388.769,199.108 387.436,199.441 386,199.5C 378.104,197.853 370.271,196.353 362.5,195C 359.333,198.167 356.167,201.333 353,204.5C 352.333,206.5 352.333,208.5 353,210.5C 354.658,216.798 356.158,223.132 357.5,229.5C 357.61,231.374 356.944,232.874 355.5,234C 349.731,237.301 343.897,240.468 338,243.5C 330.915,238.421 324.415,232.587 318.5,226C 312.708,225.758 307.208,226.925 302,229.5C 299.555,237.503 296.722,245.336 293.5,253C 285.394,253.886 277.394,253.386 269.5,251.5C 267.169,242.854 264.836,234.187 262.5,225.5C 258.533,223.344 254.366,221.677 250,220.5C 242.667,225.833 235.333,231.167 228,236.5C 223.667,233.5 219.333,230.5 215,227.5C 210.667,230.5 206.333,233.5 202,236.5C 194.894,231.732 188.061,226.565 181.5,221C 176.413,221.472 171.58,222.972 167,225.5C 165.148,234.264 162.981,242.93 160.5,251.5C 152.606,253.386 144.606,253.886 136.5,253C 133.278,245.336 130.445,237.503 128,229.5C 122.792,226.925 117.292,225.758 111.5,226C 105.585,232.587 99.0846,238.421 92,243.5C 84.6496,240.143 77.8163,235.976 71.5,231C 74.53,222.385 76.3633,213.552 77,204.5C 73.6514,200.984 70.1514,197.651 66.5,194.5C 57.9823,197.105 49.3157,198.605 40.5,199C 35.4877,192.158 32.3211,184.658 31,176.5C 37.8333,171 44,164.833 49.5,158C 48.7304,153.307 47.397,148.807 45.5,144.5C 37.6108,141.593 29.7774,138.593 22,135.5C 21.3465,127.403 22.0132,119.403 24,111.5C 24.5,111 25,110.5 25.5,110C 34.0711,108.323 42.5711,106.49 51,104.5C 53.9783,100.24 55.3117,95.5731 55,90.5C 49.767,84.2713 44.9337,77.7713 40.5,71C 45.0131,64.3209 50.0131,57.9875 55.5,52C 63.4089,53.6377 71.0755,56.3044 78.5,60C 83.6303,60.5215 87.7969,58.6881 91,54.5C 91.0203,45.7823 90.6869,37.1156 90,28.5C 97.4364,24.6296 105.27,21.6296 113.5,19.5C 115.383,19.8757 116.883,20.8757 118,22.5C 122.113,28.947 126.613,35.1137 131.5,41C 134.833,41.6667 138.167,41.6667 141.5,41C 145.972,33.22 150.306,25.3866 154.5,17.5 Z M 137.5,66.5 C 161.535,66.685 180.869,76.185 195.5,95C 189.214,95.2967 183.048,96.13 177,97.5C 175.01,105.125 173.177,112.792 171.5,120.5C 171.58,122.33 172.413,123.663 174,124.5C 180.74,128.12 187.573,131.62 194.5,135C 195.206,138.131 195.873,141.298 196.5,144.5C 195.872,146.258 194.872,147.758 193.5,149C 187.245,153.378 181.078,157.878 175,162.5C 174.333,163.833 174.333,165.167 175,166.5C 176.864,171.091 178.53,175.757 180,180.5C 180.768,183.511 182.268,186.011 184.5,188C 156.828,208.337 128.495,209.337 99.5,191C 73.4859,169.612 65.6525,142.778 76,110.5C 88.0529,83.9012 108.553,69.2345 137.5,66.5 Z M 245.5,96.5 C 241.833,95.8333 238.167,95.1667 234.5,94.5C 257.409,67.9389 285.409,60.7722 318.5,73C 349.29,89.7473 362.123,115.581 357,150.5C 349.288,178.879 331.121,196.379 302.5,203C 281.212,206.569 262.212,201.569 245.5,188C 246.667,187.5 247.5,186.667 248,185.5C 250.6,178.532 253.1,171.532 255.5,164.5C 255.392,163.558 255.059,162.725 254.5,162C 247.383,157.217 240.55,152.051 234,146.5C 234.077,142.868 234.41,139.201 235,135.5C 242.246,131.794 249.413,127.961 256.5,124C 257.574,123.261 258.241,122.261 258.5,121C 256.902,113.11 255.069,105.277 253,97.5C 250.619,96.565 248.119,96.2317 245.5,96.5 Z"/></g>
<g><path style="opacity:1" fill="#989595" d="M 234.5,94.5 C 238.167,95.1667 241.833,95.8333 245.5,96.5C 241.445,96.8242 237.445,96.4909 233.5,95.5C 233.624,94.8933 233.957,94.56 234.5,94.5 Z"/></g>
<g><path style="opacity:1" fill="#a7a7a7" d="M 127.5,114.5 C 137.319,113.506 147.319,113.173 157.5,113.5C 157.81,116.713 157.477,119.713 156.5,122.5C 156.5,119.833 156.5,117.167 156.5,114.5C 146.833,114.5 137.167,114.5 127.5,114.5 Z"/></g>
<g><path style="opacity:1" fill="#323232" d="M 127.5,114.5 C 137.167,114.5 146.833,114.5 156.5,114.5C 156.5,117.167 156.5,119.833 156.5,122.5C 147.494,122.334 138.494,122.5 129.5,123C 119.076,126.008 115.576,132.842 119,143.5C 120.715,146.717 123.215,149.05 126.5,150.5C 127.919,151.451 129.585,151.784 131.5,151.5C 131.5,145.833 131.5,140.167 131.5,134.5C 140.833,134.5 150.167,134.5 159.5,134.5C 159.5,143.167 159.5,151.833 159.5,160.5C 148.828,160.667 138.161,160.5 127.5,160C 114.002,158.001 107.002,150.168 106.5,136.5C 107.417,123.252 114.417,115.919 127.5,114.5 Z"/></g>
<g><path style="opacity:1" fill="#f39222" d="M 314.5,145.5 C 314.56,146.043 314.893,146.376 315.5,146.5C 316.499,135.854 316.832,125.187 316.5,114.5C 319.565,113.182 322.731,113.182 326,114.5C 326.5,129.496 326.667,144.496 326.5,159.5C 322.486,159.666 318.486,159.499 314.5,159C 304.303,149.137 294.47,138.971 285,128.5C 284.5,138.828 284.334,149.161 284.5,159.5C 280.833,159.5 277.167,159.5 273.5,159.5C 273.5,144.167 273.5,128.833 273.5,113.5C 277.637,113.146 281.637,113.646 285.5,115C 295.006,125.338 304.672,135.505 314.5,145.5 Z"/></g>
<g><path style="opacity:1" fill="#f5a844" d="M 316.5,114.5 C 316.832,125.187 316.499,135.854 315.5,146.5C 314.893,146.376 314.56,146.043 314.5,145.5C 315.167,135.167 315.833,124.833 316.5,114.5 Z"/></g>
<g><path style="opacity:1" fill="#bbbbbb" d="M 159.5,134.5 C 150.167,134.5 140.833,134.5 131.5,134.5C 131.5,140.167 131.5,145.833 131.5,151.5C 129.585,151.784 127.919,151.451 126.5,150.5C 127.833,150.5 129.167,150.5 130.5,150.5C 130.5,144.833 130.5,139.167 130.5,133.5C 140.348,133.173 150.014,133.506 159.5,134.5 Z"/></g>
<g><path style="opacity:1" fill="#f7f7f7" d="M 140.5,142.5 C 143.5,142.5 146.5,142.5 149.5,142.5C 149.5,145.5 149.5,148.5 149.5,151.5C 146.5,151.5 143.5,151.5 140.5,151.5C 140.5,148.5 140.5,145.5 140.5,142.5 Z"/></g>
<g><path style="opacity:1" fill="#f1f0f0" d="M 214.5,191.5 C 216.478,192.317 217.478,193.817 217.5,196C 215.833,206 214.167,206 212.5,196C 212.519,194.167 213.185,192.667 214.5,191.5 Z"/></g>
</svg>
